<?xml version="1.0" encoding="UTF-8" standalone="no"?>
<!DOCTYPE svg PUBLIC "-//W3C//DTD SVG 1.1//EN" "http://www.w3.org/Graphics/SVG/1.1/DTD/svg11.dtd">
<svg width="100%" height="100%" viewBox="0 0 500 500" version="1.1" xmlns="http://www.w3.org/2000/svg" xmlns:xlink="http://www.w3.org/1999/xlink" xml:space="preserve" xmlns:serif="http://www.serif.com/" style="fill-rule:evenodd;clip-rule:evenodd;stroke-linecap:round;stroke-linejoin:round;stroke-miterlimit:1.5;">
    <path d="M500,75l0,350c0,41.394 -33.606,75 -75,75l-350,0c-41.394,0 -75,-33.606 -75,-75l0,-350c0,-41.394 33.606,-75 75,-75l350,0c41.394,0 75,33.606 75,75Z" style="fill:rgb(217,226,233);"/>
    <g transform="matrix(0.0825,0,0,0.081752,250,250)">
        <g transform="matrix(1,0,0,1,-2666.666667,-1712.5)">
            <g transform="matrix(0.416667,0,0,-0.416667,0,3425)">
                <path d="M7121,8205c-484,-56 -926,-221 -1315,-494c-238,-166 -476,-397 -637,-618c-23,-32 -44,-60 -45,-62c-2,-2 -40,8 -84,23c-117,38 -260,73 -385,92c-150,23 -442,23 -590,0c-611,-94 -1127,-423 -1468,-934c-235,-353 -362,-809 -344,-1229l6,-132l-32,-5c-18,-3 -72,-10 -122,-16c-413,-50 -861,-242 -1201,-515c-434,-349 -738,-846 -852,-1395c-38,-183 -47,-272 -46,-495c0,-243 14,-368 63,-571c221,-899 936,-1599 1835,-1794c268,-58 -2,-55 4336,-55c3806,0 4011,1 4125,18c649,97 1197,373 1635,824c142,145 217,237 324,396c233,346 381,728 448,1162c18,116 22,183 22,395c0,282 -16,420 -74,657c-180,738 -643,1363 -1298,1752c-333,198 -715,326 -1104,371c-117,14 -118,14 -118,89c0,95 -59,403 -107,556c-75,243 -205,524 -331,715c-452,687 -1140,1129 -1947,1250c-185,28 -520,35 -694,15Z" style="fill:rgb(140,183,215);fill-rule:nonzero;"/>
            </g>
        </g>
    </g>
    <g transform="matrix(1,0,0,1,92.589059,-30.566158)">
        <g transform="matrix(0.958537,0,0,1.025217,-8.455905,19.077332)">
            <ellipse cx="172.71" cy="213.422" rx="39.122" ry="36.578" style="fill:white;stroke:rgb(37,64,94);stroke-width:16.79px;"/>
        </g>
        <g transform="matrix(1.062937,0,0,1.037037,-18.37288,-8.050608)">
            <path d="M210.56,307.661l0,107.961c0,12.865 -10.19,23.31 -22.742,23.31l-45.483,0c-12.552,0 -22.742,-10.445 -22.742,-23.31l0,-107.961c0,-12.865 10.19,-23.31 22.742,-23.31l45.483,0c12.552,0 22.742,10.445 22.742,23.31Z" style="fill:white;stroke:rgb(37,64,94);stroke-width:15.87px;"/>
        </g>
    </g>
    <g transform="matrix(1,0,0,1,171.469466,6.361323)">
        <g transform="matrix(0.958537,0,0,1.025217,-1.490256,19.649851)">
            <ellipse cx="172.71" cy="213.422" rx="39.122" ry="36.578" style="fill:white;stroke:rgb(37,64,94);stroke-width:16.79px;"/>
        </g>
        <g transform="matrix(1.062937,0,0,1.037037,-11.407231,-7.478089)">
            <path d="M210.56,307.661l0,107.961c0,12.865 -10.19,23.31 -22.742,23.31l-45.483,0c-12.552,0 -22.742,-10.445 -22.742,-23.31l0,-107.961c0,-12.865 10.19,-23.31 22.742,-23.31l45.483,0c12.552,0 22.742,10.445 22.742,23.31Z" style="fill:white;stroke:rgb(37,64,94);stroke-width:15.87px;"/>
        </g>
    </g>
    <g transform="matrix(1,0,0,1,14.344784,6.361323)">
        <g transform="matrix(0.958537,0,0,1.025217,-16.057686,19.649851)">
            <ellipse cx="172.71" cy="213.422" rx="39.122" ry="36.578" style="fill:white;stroke:rgb(37,64,94);stroke-width:16.79px;"/>
        </g>
        <g transform="matrix(1.062937,0,0,1.037037,-25.974661,-7.478089)">
            <path d="M210.56,307.661l0,107.961c0,12.865 -10.19,23.31 -22.742,23.31l-45.483,0c-12.552,0 -22.742,-10.445 -22.742,-23.31l0,-107.961c0,-12.865 10.19,-23.31 22.742,-23.31l45.483,0c12.552,0 22.742,10.445 22.742,23.31Z" style="fill:white;stroke:rgb(37,64,94);stroke-width:15.87px;"/>
        </g>
    </g>
</svg>
