<?xml version="1.0" encoding="UTF-8" standalone="no"?>
<!DOCTYPE svg PUBLIC "-//W3C//DTD SVG 1.1//EN" "http://www.w3.org/Graphics/SVG/1.1/DTD/svg11.dtd">
<svg width="100%" height="100%" viewBox="0 0 500 500" version="1.1" xmlns="http://www.w3.org/2000/svg" xmlns:xlink="http://www.w3.org/1999/xlink" xml:space="preserve" xmlns:serif="http://www.serif.com/" style="fill-rule:evenodd;clip-rule:evenodd;stroke-linecap:round;stroke-linejoin:round;stroke-miterlimit:1.5;">
    <path d="M500,75l0,350c0,41.394 -33.606,75 -75,75l-350,0c-41.394,0 -75,-33.606 -75,-75l0,-350c0,-41.394 33.606,-75 75,-75l350,0c41.394,0 75,33.606 75,75Z" style="fill:rgb(217,226,233);"/>
    <g transform="matrix(0.0825,0,0,0.081752,250,250)">
        <g transform="matrix(1,0,0,1,-2666.666667,-1712.5)">
            <g transform="matrix(0.416667,0,0,-0.416667,0,3425)">
                <path d="M7121,8205c-484,-56 -926,-221 -1315,-494c-238,-166 -476,-397 -637,-618c-23,-32 -44,-60 -45,-62c-2,-2 -40,8 -84,23c-117,38 -260,73 -385,92c-150,23 -442,23 -590,0c-611,-94 -1127,-423 -1468,-934c-235,-353 -362,-809 -344,-1229l6,-132l-32,-5c-18,-3 -72,-10 -122,-16c-413,-50 -861,-242 -1201,-515c-434,-349 -738,-846 -852,-1395c-38,-183 -47,-272 -46,-495c0,-243 14,-368 63,-571c221,-899 936,-1599 1835,-1794c268,-58 -2,-55 4336,-55c3806,0 4011,1 4125,18c649,97 1197,373 1635,824c142,145 217,237 324,396c233,346 381,728 448,1162c18,116 22,183 22,395c0,282 -16,420 -74,657c-180,738 -643,1363 -1298,1752c-333,198 -715,326 -1104,371c-117,14 -118,14 -118,89c0,95 -59,403 -107,556c-75,243 -205,524 -331,715c-452,687 -1140,1129 -1947,1250c-185,28 -520,35 -694,15Z" style="fill:rgb(140,183,215);fill-rule:nonzero;"/>
            </g>
        </g>
    </g>
    <g>
        <g transform="matrix(1,0,0,1,5.289673,-4.40806)">
            <g transform="matrix(1,0,0,1,-0,-3.526448)">
                <path d="M384.005,243.802l0,185.28c0,12.782 -10.378,23.16 -23.16,23.16l-232.27,0c-12.782,0 -23.16,-10.378 -23.16,-23.16l0,-185.28c0,-12.782 10.378,-23.16 23.16,-23.16l232.27,0c12.782,0 23.16,10.378 23.16,23.16Z" style="fill:white;stroke:rgb(37,64,94);stroke-width:16.67px;"/>
            </g>
            <g transform="matrix(1,0,0,0.820925,0,39.511483)">
                <rect x="108.501" y="220.642" width="269.332" height="43.816" style="fill:rgb(37,64,94);stroke:rgb(37,64,94);stroke-width:9.11px;"/>
            </g>
            <g transform="matrix(1,0,0,1.125714,-13.105793,-23.335647)">
                <path d="M197.985,185.562l0,70.954c0,1.707 -1.56,3.093 -3.482,3.093l-27.859,0c-1.922,0 -3.482,-1.386 -3.482,-3.093l0,-70.954c0,-1.707 1.56,-3.093 3.482,-3.093l27.859,0c1.922,0 3.482,1.386 3.482,3.093Z" style="fill:white;stroke:rgb(37,64,94);stroke-width:7.83px;"/>
            </g>
            <g transform="matrix(1,0,0,1.125714,64.13728,-23.335647)">
                <path d="M197.985,185.562l0,70.954c0,1.707 -1.56,3.093 -3.482,3.093l-27.859,0c-1.922,0 -3.482,-1.386 -3.482,-3.093l0,-70.954c0,-1.707 1.56,-3.093 3.482,-3.093l27.859,0c1.922,0 3.482,1.386 3.482,3.093Z" style="fill:white;stroke:rgb(37,64,94);stroke-width:7.83px;"/>
            </g>
            <g transform="matrix(1,0,0,1.125714,141.057935,-23.335647)">
                <path d="M197.985,185.562l0,70.954c0,1.707 -1.56,3.093 -3.482,3.093l-27.859,0c-1.922,0 -3.482,-1.386 -3.482,-3.093l0,-70.954c0,-1.707 1.56,-3.093 3.482,-3.093l27.859,0c1.922,0 3.482,1.386 3.482,3.093Z" style="fill:white;stroke:rgb(37,64,94);stroke-width:7.83px;"/>
            </g>
            <g transform="matrix(1,0,0,1,3.085642,7.756802)">
                <rect x="137.154" y="409.043" width="208.942" height="6.171" style="fill:rgb(37,64,94);stroke:rgb(37,64,94);stroke-width:8.33px;"/>
            </g>
            <g transform="matrix(1,0,0,1,3.085642,-43.817505)">
                <rect x="137.154" y="409.043" width="208.942" height="6.171" style="fill:rgb(37,64,94);stroke:rgb(37,64,94);stroke-width:8.33px;"/>
            </g>
        </g>
        <g transform="matrix(1,0,0,1,1.542821,9.079221)">
            <rect x="143.986" y="319.428" width="22.901" height="32.31" style="fill:rgb(37,64,94);stroke:rgb(37,64,94);stroke-width:8.33px;"/>
        </g>
        <g transform="matrix(1,0,0,1,1.542821,-39.409442)">
            <rect x="143.986" y="319.428" width="22.901" height="32.31" style="fill:rgb(37,64,94);stroke:rgb(37,64,94);stroke-width:8.33px;"/>
        </g>
        <g transform="matrix(1.534779,0,0,1,84.795495,-102.972288)">
            <rect x="45.357" y="382.991" width="3.35" height="32.31" style="fill:white;"/>
        </g>
        <g transform="matrix(0,-1.534779,0.708804,0,-125.936796,361.782664)">
            <rect x="45.357" y="382.991" width="3.35" height="32.31" style="fill:white;"/>
        </g>
        <g transform="matrix(1,0,0,1,47.276446,-39.409442)">
            <rect x="143.986" y="319.428" width="22.901" height="32.31" style="fill:rgb(140,183,215);stroke:rgb(140,183,215);stroke-width:8.33px;"/>
        </g>
        <g transform="matrix(1,0,0,1,94.563225,-39.409442)">
            <rect x="143.986" y="319.428" width="22.901" height="32.31" style="fill:rgb(140,183,215);stroke:rgb(140,183,215);stroke-width:8.33px;"/>
        </g>
        <g transform="matrix(1,0,0,1,139.294704,-39.409442)">
            <rect x="143.986" y="319.428" width="22.901" height="32.31" style="fill:rgb(140,183,215);stroke:rgb(140,183,215);stroke-width:8.33px;"/>
        </g>
        <g transform="matrix(1,0,0,1,187.783367,-39.409442)">
            <rect x="143.986" y="319.428" width="22.901" height="32.31" style="fill:rgb(140,183,215);stroke:rgb(140,183,215);stroke-width:8.33px;"/>
        </g>
        <g transform="matrix(1,0,0,1,1.542821,63.49602)">
            <rect x="143.986" y="319.428" width="22.901" height="32.31" style="fill:rgb(37,64,94);stroke:rgb(37,64,94);stroke-width:8.33px;"/>
        </g>
    </g>
</svg>
